Coordinates
version=1
nRows=19
nColumns=34
inDegrees=yes

Units are S.I. units (second, meters, Newtons, ...)
Angles are in degrees.

endheader
time	pelvis_tilt	pelvis_list	pelvis_rotation	pelvis_tx	pelvis_ty	pelvis_tz	hip_flexion_r	hip_adduction_r	hip_rotation_r	knee_angle_r	ankle_angle_r	subtalar_angle_r	mtp_angle_r	hip_flexion_l	hip_adduction_l	hip_rotation_l	knee_angle_l	socket_flexion	socket_adduction	socket_rotation	socket_tx	socket_ty	socket_tz	pros_ankle_rx	pros_ankle_ry	pros_ankle_rz	pros_ankle_tx	pros_ankle_ty	pros_ankle_tz	foot_flex	lumbar_extension	lumbar_bending	lumbar_rotation
      0.60416667	     -1.46951139	     -3.24294352	      5.96223690	      0.04997607	      1.02104621	      0.32311102	     20.50215404	      3.14166235	     -8.11041424	      4.07750596	     12.92547296	      8.37120862	      6.46995320	    -21.30301589	     -3.62560862	      4.95343853	      6.22871501	     14.13929217	      0.00000000	      0.00000000	      0.00000000	     -0.00535428	      0.00000000	      0.00000000	      0.00000000	      0.00000000	      0.00000000	      0.00000000	      0.00000000	     13.74910935	    -18.78198763	     -0.03890296	    -11.53449947
      0.60833333	     -1.44583608	     -3.27811723	      6.07415948	      0.05617821	      1.02011747	      0.32324053	     20.66017470	      3.16452243	     -7.85463634	      3.57965761	     12.43528642	      8.46399979	      6.58979440	    -21.47444197	     -3.73608158	      4.94202248	      5.92512391	     14.25266895	      0.00000000	      0.00000000	      0.00000000	     -0.00558636	      0.00000000	      0.00000000	      0.00000000	      0.00000000	      0.00000000	      0.00000000	      0.00000000	     13.81215875	    -18.83757092	      0.16015490	    -11.59313001
      0.61250000	     -1.40094470	     -3.32710431	      6.20655587	      0.06239883	      1.01926053	      0.32330109	     20.78266868	      3.19657845	     -7.60402047	      3.04678099	     12.00124684	      8.51768479	      6.74824256	    -21.63995175	     -3.86681171	      4.96639915	      5.57842887	     14.35551815	      0.00000000	      0.00000000	      0.00000000	     -0.00581625	      0.00000000	      0.00000000	      0.00000000	      0.00000000	      0.00000000	      0.00000000	      0.00000000	     13.86120311	    -18.84529636	      0.36197664	    -11.60427423
      0.61666667	     -1.33695817	     -3.39466231	      6.36893678	      0.06879317	      1.01850313	      0.32330602	     20.82578907	      3.24817690	     -7.29863160	      2.55276751	     11.68951436	      8.57710218	      6.80699212	    -21.84482744	     -4.03961922	      5.08710846	      5.28874393	     14.51924274	      0.00000000	      0.00000000	      0.00000000	     -0.00600074	      0.00000000	      0.00000000	      0.00000000	      0.00000000	      0.00000000	      0.00000000	      0.00000000	     13.90217741	    -18.76953760	      0.48454582	    -11.60179345
      0.62083333	     -1.46403273	     -3.47879843	      6.52778130	      0.07473135	      1.01736810	      0.32335523	     21.32706483	      3.24978072	     -7.37371498	      1.69328304	     10.56237995	      8.59414759	     10.95839115	    -21.42477228	     -4.15690186	      5.01335568	      3.90284243	     14.04747624	      0.00000000	      0.00000000	      0.00000000	     -0.00705396	      0.00000000	      0.00000000	      0.00000000	      0.00000000	      0.00000000	      0.00000000	      0.00000000	     13.90613435	    -18.69316182	      0.75960688	    -11.60880928
      0.62500000	     -1.37644573	     -3.59159586	      6.59357182	      0.08104548	      1.01669019	      0.32349781	     21.48236350	      3.37041722	     -7.17934209	      0.91410650	     10.00107665	      8.57073396	     10.99587345	    -21.60871671	     -4.32932400	      4.93867128	      3.52654190	     14.22389413	      0.00000000	      0.00000000	      0.00000000	     -0.00742457	      0.00000000	      0.00000000	      0.00000000	      0.00000000	      0.00000000	      0.00000000	      0.00000000	     13.89972333	    -18.75972711	      1.01248891	    -11.57365057
      0.62916667	     -1.27197972	     -3.71117075	      6.64892706	      0.08737048	      1.01608048	      0.32363264	     21.63208366	      3.49876023	     -6.99120012	      0.08026283	      9.40776998	      8.54679186	     11.07146948	    -21.77006840	     -4.50036320	      4.84891088	      3.06639814	     14.36896836	      0.00000000	      0.00000000	      0.00000000	     -0.00784756	      0.00000000	      0.00000000	      0.00000000	      0.00000000	      0.00000000	      0.00000000	      0.00000000	     13.87109315	    -18.81845963	      1.29103460	    -11.48962383
      0.63333333	     -1.16933084	     -3.87738027	      6.68172578	      0.09361763	      1.01548984	      0.32390962	     21.82669529	      3.69137866	     -6.86102925	     -0.82830693	      8.79409166	      8.50131180	     11.25119233	    -21.85526520	     -4.71607608	      4.69859248	      2.42474330	     14.42809856	      0.00000000	      0.00000000	      0.00000000	     -0.00847762	      0.00000000	      0.00000000	      0.00000000	      0.00000000	      0.00000000	      0.00000000	      0.00000000	     13.82517097	    -18.93444633	      1.52928931	    -11.32259848
      0.63750000	     -1.05944207	     -4.02291231	      6.68237785	      0.09981279	      1.01493862	      0.32407797	     22.05247105	      3.84706087	     -6.77438938	     -1.83041587	      8.13757677	      8.43832145	     11.46679857	    -21.91514002	     -4.87708179	      4.51389070	      1.70536714	     14.46274994	      0.00000000	      0.00000000	      0.00000000	     -0.00916618	      0.00000000	      0.00000000	      0.00000000	      0.00000000	      0.00000000	      0.00000000	      0.00000000	     13.73408884	    -19.03267404	      1.85978786	    -11.13981051
      0.64166667	     -1.35049107	     -4.14840526	      6.87075827	      0.10548822	      1.01379520	      0.32411049	     22.85838991	      3.84060580	     -6.95028203	     -3.10340427	      7.53478627	      8.52733138	     13.66200640	    -20.87365779	     -5.00715668	      4.52173263	     -0.71254648	     13.52291912	      0.00000000	      0.00000000	      0.00000000	     -0.01071270	      0.00000000	      0.00000000	      0.00000000	      0.00000000	      0.00000000	      0.00000000	      0.00000000	     13.62298567	    -18.66072060	      2.08755239	    -11.05957025
      0.64583333	     -1.18374818	     -4.33674502	      6.81825894	      0.11189580	      1.01347732	      0.32442454	     23.00778966	      4.07234291	     -6.92276278	     -4.12685875	      6.91098795	      8.46386011	     13.79002024	    -21.05035383	     -5.21326507	      4.26512685	     -1.25340776	     13.73127887	      0.00000000	      0.00000000	      0.00000000	     -0.01131023	      0.00000000	      0.00000000	      0.00000000	      0.00000000	      0.00000000	      0.00000000	      0.00000000	     13.46632223	    -18.82654553	      2.40091452	    -10.84774070
      0.65000000	     -1.02685568	     -4.48000676	      6.85946310	      0.11831532	      1.01335740	      0.32459641	     23.01542987	      4.25366149	     -6.74237336	     -4.92121062	      6.50183728	      8.45694817	     13.81751070	    -21.20251933	     -5.40904194	      4.24345642	     -1.70974652	     14.05138790	      0.00000000	      0.00000000	      0.00000000	     -0.01180887	      0.00000000	      0.00000000	      0.00000000	      0.00000000	      0.00000000	      0.00000000	      0.00000000	     13.27453191	    -18.79429507	      2.59223868	    -10.77704235
      0.65416667	     -0.85499440	     -4.71801646	      6.74256232	      0.12416557	      1.01294182	      0.32507826	     23.41506624	      4.50330616	     -7.05237140	     -6.38850681	      5.98458923	      8.57665051	     14.45017314	    -20.89780153	     -5.60666072	      3.74619520	     -3.58622790	     13.45064370	      0.00000000	      0.00000000	      0.00000000	     -0.01313764	      0.00000000	      0.00000000	      0.00000000	      0.00000000	      0.00000000	      0.00000000	      0.00000000	     13.01288417	    -19.19750709	      2.99378473	     -9.95978589
      0.65833333	     -0.70977588	     -4.88335822	      6.67619978	      0.13061095	      1.01287108	      0.32539470	     23.51310699	      4.71256188	     -7.01243058	     -7.34832457	      5.48180747	      8.52057893	     14.48996302	    -21.00988678	     -5.77957489	      3.59643837	     -4.12708113	     13.76103328	      0.00000000	      0.00000000	      0.00000000	     -0.01378508	      0.00000000	      0.00000000	      0.00000000	      0.00000000	      0.00000000	      0.00000000	      0.00000000	     12.72231665	    -19.19231049	      3.26829598	     -9.97304682
      0.66250000	     -0.82772447	     -5.06595548	      6.71550967	      0.13634393	      1.01221684	      0.32569039	     24.18752768	      4.78269816	     -7.52216253	     -8.79859656	      5.15508965	      8.88881085	     15.37691423	    -20.05388231	     -5.94242271	      3.31527233	     -6.75058751	     12.81224098	      0.00000000	      0.00000000	      0.00000000	     -0.01510108	      0.00000000	      0.00000000	      0.00000000	      0.00000000	      0.00000000	      0.00000000	      0.00000000	     12.41457827	    -19.20100355	      3.56987749	     -9.65936383
      0.66666667	     -0.73189426	     -5.31305290	      6.63806818	      0.14266896	      1.01205581	      0.32608150	     24.40169943	      5.04267332	     -7.69779072	     -9.88215179	      4.85599012	      8.91814975	     15.67657989	    -19.83352713	     -6.18349394	      3.00144353	     -8.04423708	     12.67805749	      0.00000000	      0.00000000	      0.00000000	     -0.01605908	      0.00000000	      0.00000000	      0.00000000	      0.00000000	      0.00000000	      0.00000000	      0.00000000	     12.03660861	    -19.27715944	      3.91441799	     -9.31510747
      0.67083333	     -0.64911396	     -5.50940445	      6.58894177	      0.14880154	      1.01195161	      0.32647912	     24.61959700	      5.22848639	     -7.90558685	    -10.94682634	      4.53371432	      9.00656328	     15.92833495	    -19.42656631	     -6.37785482	      2.72115564	     -9.73363863	     12.34883391	      0.00000000	      0.00000000	      0.00000000	     -0.01696106	      0.00000000	      0.00000000	      0.00000000	      0.00000000	      0.00000000	      0.00000000	      0.00000000	     11.62687267	    -19.36511597	      4.20834108	     -9.05283525
      0.67500000	     -0.50739189	     -5.74742176	      6.45502710	      0.15515576	      1.01199981	      0.32697266	     24.71238822	      5.50588822	     -8.04385991	    -11.92175333	      4.28960134	      9.01127572	     16.00834787	    -19.23738887	     -6.60123013	      2.32404581	    -11.03836501	     12.25706186	      0.00000000	      0.00000000	      0.00000000	     -0.01782136	      0.00000000	      0.00000000	      0.00000000	      0.00000000	      0.00000000	      0.00000000	      0.00000000	     11.15082969	    -19.50937757	      4.58344711	     -8.70978248
      0.67916667	     -0.35086766	     -5.93010956	      6.27734721	      0.16176846	      1.01222674	      0.32753252	     24.70734956	      5.75028196	     -8.15072003	    -12.78749235	      3.93964250	      8.95504259	     16.00096917	    -19.25198688	     -6.76327991	      1.95764216	    -11.82679119	     12.51065177	      0.00000000	      0.00000000	      0.00000000	     -0.01863160	      0.00000000	      0.00000000	      0.00000000	      0.00000000	      0.00000000	      0.00000000	      0.00000000	     10.58038057	    -19.57700719	      4.83396827	     -8.61285348
